<?xml version="1.0" encoding="UTF-8" standalone="no"?>
<!DOCTYPE svg PUBLIC "-//W3C//DTD SVG 1.1//EN" "http://www.w3.org/Graphics/SVG/1.1/DTD/svg11.dtd">
<svg width="100%" height="100%" viewBox="0 0 400 400" version="1.1" xmlns="http://www.w3.org/2000/svg" xmlns:xlink="http://www.w3.org/1999/xlink" xml:space="preserve" xmlns:serif="http://www.serif.com/" style="fill-rule:evenodd;clip-rule:evenodd;stroke-linecap:round;stroke-linejoin:round;">
    <g transform="matrix(7.20361,0,0,7.20361,200,200)">
        <g transform="matrix(1,0,0,1,-12,-12)">
            <path d="M4,17L10,11L4,5" style="fill:none;fill-rule:nonzero;stroke:white;stroke-width:2px;"/>
            <path d="M12,19L20,19" style="fill:none;fill-rule:nonzero;stroke:white;stroke-width:2px;"/>
        </g>
    </g>
    <g transform="matrix(4.50007,0,0,4.50007,-380.042,-1006.88)">
        <path d="M94.768,265.119C96.691,265.07 98.258,264.551 99.47,263.565C100.681,262.578 101.486,261.223 101.886,259.5C102.285,257.777 102.498,254.83 102.523,250.659C102.548,246.488 102.623,243.741 102.747,242.417C102.972,240.319 103.391,238.634 104.002,237.36C104.614,236.086 105.37,235.068 106.269,234.307C107.168,233.545 108.317,232.964 109.715,232.565C110.665,232.315 112.213,232.19 114.361,232.19L116.459,232.19L116.459,238.072L115.297,238.072C112.7,238.072 110.977,238.54 110.128,239.477C109.278,240.413 108.854,242.505 108.854,245.751C108.854,252.295 108.716,256.428 108.442,258.151C107.992,260.824 107.224,262.884 106.138,264.333C105.051,265.781 103.347,267.068 101.024,268.191C103.771,269.34 105.763,271.095 106.999,273.455C108.236,275.815 108.854,279.68 108.854,285.049C108.854,289.919 108.904,292.817 109.004,293.741C109.203,295.439 109.709,296.625 110.521,297.3C111.333,297.974 112.925,298.311 115.297,298.311L116.459,298.311L116.459,304.193L114.361,304.193C111.913,304.193 110.14,303.993 109.041,303.593C107.443,303.019 106.119,302.088 105.07,300.802C104.021,299.516 103.341,297.886 103.028,295.913C102.716,293.94 102.548,290.706 102.523,286.211C102.498,281.715 102.285,278.606 101.886,276.883C101.486,275.159 100.681,273.798 99.47,272.799C98.258,271.8 96.691,271.276 94.768,271.226L94.768,265.119Z" style="fill:white;fill-rule:nonzero;"/>
        <path d="M163.024,265.119L163.024,271.226C161.101,271.276 159.534,271.8 158.323,272.799C157.111,273.798 156.306,275.153 155.906,276.864C155.507,278.575 155.295,281.515 155.27,285.686C155.245,289.857 155.17,292.604 155.045,293.928C154.82,296.051 154.402,297.743 153.79,299.004C153.178,300.265 152.422,301.277 151.523,302.039C150.624,302.8 149.475,303.381 148.077,303.781C147.128,304.055 145.579,304.193 143.432,304.193L141.334,304.193L141.334,298.311L142.495,298.311C145.092,298.311 146.816,297.843 147.665,296.906C148.514,295.97 148.938,293.866 148.938,290.594C148.938,284.35 149.051,280.392 149.276,278.718C149.675,275.946 150.474,273.73 151.673,272.069C152.872,270.408 154.57,269.115 156.768,268.191C153.896,266.818 151.873,265.001 150.699,262.741C149.525,260.48 148.938,256.665 148.938,251.296C148.938,246.426 148.876,243.516 148.751,242.567C148.576,240.894 148.083,239.726 147.271,239.064C146.46,238.403 144.868,238.072 142.495,238.072L141.334,238.072L141.334,232.19L143.432,232.19C145.879,232.19 147.652,232.39 148.751,232.79C150.35,233.339 151.673,234.263 152.722,235.562C153.771,236.86 154.452,238.496 154.764,240.469C155.076,242.442 155.245,245.677 155.27,250.172C155.295,254.667 155.507,257.771 155.906,259.481C156.306,261.192 157.111,262.547 158.323,263.546C159.534,264.545 161.101,265.07 163.024,265.119Z" style="fill:white;fill-rule:nonzero;"/>
    </g>
</svg>
