<?xml version="1.0" encoding="UTF-8" standalone="no"?>
<!DOCTYPE svg PUBLIC "-//W3C//DTD SVG 1.1//EN" "http://www.w3.org/Graphics/SVG/1.1/DTD/svg11.dtd">
<svg width="100%" height="100%" viewBox="0 0 400 400" version="1.1" xmlns="http://www.w3.org/2000/svg" xmlns:xlink="http://www.w3.org/1999/xlink" xml:space="preserve" xmlns:serif="http://www.serif.com/" style="fill-rule:evenodd;clip-rule:evenodd;stroke-linecap:round;stroke-linejoin:round;stroke-miterlimit:1.5;">
    <g transform="matrix(1.01106,0,0,1.01106,-2.15736,-2.40618)">
        <path d="M392.286,104.022C392.286,50.944 349.194,7.852 296.116,7.852L103.776,7.852C50.698,7.852 7.605,50.944 7.605,104.022L7.605,296.362C7.605,349.44 50.698,392.532 103.776,392.532L296.116,392.532C349.194,392.532 392.286,349.44 392.286,296.362L392.286,104.022Z" style="fill:none;stroke:white;stroke-width:8.24px;"/>
    </g>
    <g transform="matrix(1.70181,0,0,1.70181,-56.5019,-124.686)">
        <path d="M98.557,254.931C83.771,254.931 72.385,249.578 64.401,238.873C56.416,228.168 52.424,213.175 52.424,193.894C52.424,172.247 56.86,155.627 65.732,144.035C74.603,132.442 87.024,126.646 102.993,126.646C108.434,126.646 114.023,127.711 119.76,129.84C125.497,131.969 130.554,134.985 134.931,138.889C136.469,140.19 137.326,141.669 137.504,143.325C137.681,144.981 137.356,146.519 136.528,147.938C135.7,149.358 134.547,150.274 133.068,150.688C131.589,151.102 129.904,150.6 128.011,149.18C123.989,145.75 119.849,143.295 115.591,141.817C111.332,140.338 107.015,139.599 102.638,139.599C91.046,139.599 82.144,143.916 75.934,152.551C69.724,161.186 66.619,174.021 66.619,191.055L66.619,199.749C68.866,191.942 73.036,185.85 79.128,181.473C85.22,177.096 92.406,174.908 100.686,174.908C108.02,174.908 114.526,176.594 120.204,179.965C125.882,183.336 130.318,187.979 133.512,193.894C136.705,199.808 138.302,206.61 138.302,214.298C138.302,222.224 136.617,229.233 133.245,235.324C129.874,241.416 125.202,246.207 119.228,249.697C113.255,253.186 106.364,254.931 98.557,254.931ZM97.67,242.51C105.595,242.51 112.012,239.967 116.921,234.881C121.831,229.794 124.285,223.111 124.285,214.831C124.285,206.669 121.831,200.015 116.921,194.869C112.012,189.724 105.595,187.151 97.67,187.151C89.744,187.151 83.327,189.724 78.418,194.869C73.509,200.015 71.055,206.669 71.055,214.831C71.055,223.111 73.509,229.794 78.418,234.881C83.327,239.967 89.744,242.51 97.67,242.51Z" style="fill:white;fill-rule:nonzero;"/>
        <path d="M221.696,254.576C216.847,254.576 214.422,252.092 214.422,247.124L214.422,226.541L163.498,226.541C161.132,226.541 159.269,225.98 157.909,224.856C156.548,223.732 155.868,222.106 155.868,219.976C155.868,217.847 157.229,214.772 159.949,210.75L214.067,131.969C216.196,128.657 218.917,127.001 222.229,127.001C224.121,127.001 225.748,127.622 227.108,128.864C228.468,130.106 229.149,131.969 229.149,134.453L229.149,214.121L242.101,214.121C246.715,214.121 249.021,216.191 249.021,220.331C249.021,224.471 246.715,226.541 242.101,226.541L229.149,226.541L229.149,247.124C229.149,252.092 226.665,254.576 221.696,254.576ZM214.422,214.121L214.422,151.664L171.66,214.121L214.422,214.121Z" style="fill:white;fill-rule:nonzero;"/>
    </g>
</svg>
